inDegrees=no
num_controls=7
num_derivatives=13
num_iterations=200
num_multipliers=7
num_parameters=0
num_slacks=7
num_states=26
objective=5.710659
objective_accelerations=0.406587
objective_balance=0.011675
objective_effort=0.438922
objective_height=4.740080
objective_ligament=0.113395
solver_duration=1690.936161
status=Solve_Succeeded
success=true
DataType=double
version=3
OpenSimVersion=4.4-2022-07-23-0e9fedc
endheader
time	/jointset/ground_pelvis/pelvis_tilt/value	/jointset/ground_pelvis/pelvis_tx/value	/jointset/ground_pelvis/pelvis_ty/value	/jointset/hip_r/hip_flexion_r/value	/jointset/hip_r/hip_adduction_r/value	/jointset/hip_r/hip_rotation_r/value	/jointset/back/lumbar_extension/value	/jointset/patellofemoral_r/patellar_flexion_r/value	/jointset/knee_r/knee_flexion_r/value	/jointset/knee_r/knee_adduction_r/value	/jointset/knee_r/knee_rotation_r/value	/jointset/ankle_r/ankle_angle_r/value	/jointset/subtalar_r/subtalar_angle_r/value	/jointset/ground_pelvis/pelvis_tilt/speed	/jointset/ground_pelvis/pelvis_tx/speed	/jointset/ground_pelvis/pelvis_ty/speed	/jointset/hip_r/hip_flexion_r/speed	/jointset/hip_r/hip_adduction_r/speed	/jointset/hip_r/hip_rotation_r/speed	/jointset/back/lumbar_extension/speed	/jointset/patellofemoral_r/patellar_flexion_r/speed	/jointset/knee_r/knee_flexion_r/speed	/jointset/knee_r/knee_adduction_r/speed	/jointset/knee_r/knee_rotation_r/speed	/jointset/ankle_r/ankle_angle_r/speed	/jointset/subtalar_r/subtalar_angle_r/speed	/forceset/tau_hip_flexion_r	/forceset/tau_hip_adduction_r	/forceset/tau_hip_rotation_r	/forceset/tau_knee_flexion_r	/forceset/tau_ankle_angle_r	/forceset/tau_subtalar_angle_r	/forceset/tau_lumbar_extension	lambda_cid13_p0	lambda_cid14_p0	lambda_cid14_p1	lambda_cid14_p2	lambda_cid14_p3	lambda_cid14_p4	lambda_cid14_p5	/jointset/ground_pelvis/pelvis_tilt/accel	/jointset/ground_pelvis/pelvis_tx/accel	/jointset/ground_pelvis/pelvis_ty/accel	/jointset/hip_r/hip_flexion_r/accel	/jointset/hip_r/hip_adduction_r/accel	/jointset/hip_r/hip_rotation_r/accel	/jointset/back/lumbar_extension/accel	/jointset/patellofemoral_r/patellar_flexion_r/accel	/jointset/knee_r/knee_flexion_r/accel	/jointset/knee_r/knee_adduction_r/accel	/jointset/knee_r/knee_rotation_r/accel	/jointset/ankle_r/ankle_angle_r/accel	/jointset/subtalar_r/subtalar_angle_r/accel	gamma_cid13_p0	gamma_cid14_p0	gamma_cid14_p1	gamma_cid14_p2	gamma_cid14_p3	gamma_cid14_p4	gamma_cid14_p5
1.5	-0.1857424022936162	-0.01654874074089157	0.8471085193385365	0.835153146373985	-0.2188146237051339	-0.1508179474193913	-0.6372467575399222	0.6781917558812072	0.6781917558812074	0.01328716461437852	0.1745312597747154	0.1007642866370529	0.07751930241878298	0.7804313817956	0.3372852716161568	0.3676217662249847	-2.04100196661316	0.00534178322850246	-0.236853313648656	0.7948418472929931	-1.23399900636761	-1.233999006367705	0.2168258454809772	2.40903270920844e-06	-0.02246535162051455	0.003661307563658474	-0.2153551307238542	-0.01912673605760715	0.01591150494185113	-0.2222190404483855	0.08185371484944247	-0.00359490670852297	0.2466496732249247	-22.12733857663882	-16.54044183265453	-1.328020382285169	-2.940824550211225	-7.067395171252259	-639.482926817934	69.36257106364977	0.0928971983666594	0.6922726311322425	-0.2669671769407981	-1.252550976141009	-0.06073921688786749	-0.2271749930577475	1.971893754056164	-1.017001465114396	-1.017001465114372	0.5538119966478476	-0.02912471616438081	0.03009821779958437	-0.06379449776621168	3.232426228685333e-08	-3.819447494821349e-08	-6.299518416113185e-07	-3.333045058412857e-07	8.692479882938376e-08	7.71241513563682e-08	-1.725859764453175e-07
1.51	-0.1779341318130964	-0.01314161822115346	0.8507706395059996	0.8146827043977108	-0.218764372669524	-0.1531993509504548	-0.6292012551853263	0.6658024198218486	0.6658024198218555	0.0154822783800769	0.1745313125531316	0.1005411867956865	0.07755260266074469	0.7811161325276583	0.3441004368439274	0.3647226705993551	-2.05281059582116	0.00470694645472696	-0.2394116662989818	0.8141491482091853	-1.243694401850057	-1.243694401850113	0.2221768281517595	7.242043848177099e-06	-0.02214651949014163	0.00299915470466282	-0.2064765497148188	-0.01961311508813262	0.01563262328939726	-0.2208358746800843	0.08123152988766436	-0.004343360769628243	0.2392223056548595	-22.67308238344598	-16.51828150916462	-1.580496641584	-2.979041778381465	-6.805957371605447	-635.2201971480015	68.93901451374224	0.0402722678416277	0.6703371947126838	-0.3133030799281185	-1.10364807733757	-0.06520174667149956	-0.2677882722739084	1.893726947921076	-0.9197448080274456	-0.9197448080216859	0.5226016450776545	0.01509560846603534	0.03401071831633087	-0.06751338723580259	3.33195979694947e-08	-3.920365123009045e-08	-6.620876118061724e-07	-3.529136017282929e-07	8.91201727764265e-08	8.290255970400224e-08	-1.826961262666012e-07
1.52	-0.1701222121738269	-0.009667504303915763	0.8544013842522954	0.794102450292505	-0.2187205391694518	-0.1556058625822867	-0.6209659640840667	0.6533213425640239	0.6533213425640397	0.01773027402101849	0.1745313753214156	0.100321522277156	0.07757926383266299	0.7811612135484173	0.3506835511160759	0.3613466819915066	-2.062964392397475	0.004058276118992353	-0.2418749337994721	0.832799596626222	-1.252347246061206	-1.252347246061224	0.2274022205339047	4.407003507517018e-06	-0.02177828705336473	0.002333493554883936	-0.1975979687057919	-0.02009949411869258	0.0153537416371282	-0.2194527089117738	0.08060934492587767	-0.005091814830780799	0.2317949380847926	-23.21054293181711	-16.50009197545193	-1.833770082918496	-3.017015303502245	-6.536537644740616	-631.0146381401339	68.51820169789744	-0.03503674389306934	0.6458624400074463	-0.3623457733846457	-0.9215844498037417	-0.06350592927968132	-0.2081579630906212	1.840523254224938	-0.8084912108547551	-0.8084912108547447	0.5286939389203812	-0.03065832646030311	0.03997827907994544	-0.06449615592296792	3.429288620501925e-08	-3.998482776990482e-08	-6.933199159866867e-07	-3.716933465788166e-07	9.09454775367315e-08	8.864310535685169e-08	-1.923350275746719e-07
1.53	-0.162313026121697	-0.006128798575417997	0.8579960206281607	0.7734289972530116	-0.218683207942921	-0.1580366444304041	-0.61254766247352	0.6407589879735027	0.6407589879735303	0.02002974129802718	0.1745314452841312	0.1001057738569461	0.07759931581378239	0.78056798289069	0.3570103282368722	0.3575038383417242	-2.071437427657637	0.003407011527939662	-0.2442631706828956	0.8507320100924053	-1.259940124840776	-1.259940124840738	0.232467260170158	8.759234120139378e-06	-0.02136425804229031	0.001677633510493607	-0.1886216185741173	-0.02061889856926652	0.01502039052076778	-0.2181584061206981	0.08004967254318177	-0.005859851753640514	0.2242368461741152	-23.73794453739793	-16.4695460538049	-2.09483754976171	-3.052087087179034	-6.240936956113369	-626.8873605881948	68.09686999894059	-0.08767359436484617	0.6190140240539789	-0.4067474078850466	-0.7668496638427063	-0.06621660674828782	-0.2514013388435263	1.750293084248838	-0.7071612813089966	-0.7071612813003832	0.4916733265441512	0.01579633613728487	0.04320881062878309	-0.06618506636186786	3.524274902798219e-08	-4.052375458377768e-08	-7.235922875269648e-07	-3.895919059530765e-07	9.237758378612764e-08	9.434342189649253e-08	-2.014732273374537e-07
1.54	-0.1545130138496921	-0.002528239340525294	0.861549929818106	0.7526794765409599	-0.2186524453388438	-0.1604907576049375	-0.6039538981900271	0.62812620958123	0.6281262095812666	0.0223791118414947	0.1745315216368291	0.09989438444654845	0.07761279836692506	0.7793264575269263	0.3630542523950629	0.3532012448074998	-2.078177926906603	0.002744551627685164	-0.2465411990813405	0.8678921312159736	-1.266432006412376	-1.266432006412281	0.2373828738290592	5.684997342773504e-06	-0.02090648509091494	0.001019607959511242	-0.1796452684424473	-0.02113830301986725	0.01468703940454394	-0.2168641033296169	0.07949000016047852	-0.006627888676536973	0.2166787542634383	-24.25346921393807	-16.44300567099494	-2.357257615565164	-3.086199172659613	-5.933275836397065	-622.8154834242864	67.67422494533375	-0.1646956851002192	0.5892918474859883	-0.4542957502730928	-0.5750772475642003	-0.06574499112003797	-0.1861162660949122	1.686064785701783	-0.5882917692605424	-0.5882917692605438	0.4988087434499021	-0.03214361993828634	0.04872706713973182	-0.06492925724147994	3.620079228386957e-08	-4.084330224251919e-08	-7.527447918456364e-07	-4.064233615067145e-07	9.350796149450634e-08	9.974350829275247e-08	-2.100266894309286e-07
